<?xml version="1.0" encoding="utf-8"?>
<!-- Designed by Vexels.com - 2017 All Rights Reserved - https://vexels.com/terms-and-conditions/  -->

<svg version="1.1" id="Layer_1" xmlns="http://www.w3.org/2000/svg" xmlns:xlink="http://www.w3.org/1999/xlink" x="0px" y="0px"
	 width="1200px" height="1200px" viewBox="0 0 1200 1200" enable-background="new 0 0 1200 1200" xml:space="preserve">
<path fill="#282727" d="M861.885,793.013c0,0,34.269-8.393,35.674-20.988c0,0-0.011-44.056-3.506-48.248c0,0,0-4.191,6.989-4.899
	c0,0,55.945-6.978,44.057-50.338c0,0-11.191-20.291-16.079-27.281c0,0-11.192-16.787-9.101-27.269c0,0-17.484-41.259-25.169-48.248
	c0,0,9.787-7,10.495-18.192c0,0,26.562-2.09,30.067-15.382c0,0-22.372,8.393-25.179,0.696c0,0,4.202-9.09,13.292-13.978
	c9.09-4.899,27.977-19.585,18.181-35.663c-9.798-16.09-29.371-67.135-32.158-81.124c-2.809-13.99-25.18-67.832-33.573-74.125
	c0,0,84.619-96.496,12.574-178.316c0,0-25.169-26.573-52.44-22.382c0,0-40.562-33.562-78.315-20.977
	c0,0-23.775-10.484-27.979-11.888c0,0,7,3.495,5.596,11.191c-1.393,7.686,0,3.495,0,3.495s-25.169-19.585-39.158-16.09
	c0,0,2.101,4.899-6.303,12.595c0,0-16.079-24.482-36.349-24.482c-20.282,0-2.809,0-2.809,0s-1.393,16.09-6.292,20.28
	c0,0,7-16.776-7.697-20.977c0,0,9.101,28.674-23.775,37.067c0,0,16.09-34.269-2.787-44.764c0,0,4.191,26.573-8.394,30.775
	c0,0,10.495-26.573-2.101-34.259c0,0,7.697,19.574-5.595,27.27c0,0,5.595-28.674-9.091-30.775c0,0,4.899,29.371-6.989,39.158
	c0,0-4.202-12.585-13.281-14.675c0,0,13.281,18.179-3.506,27.966c0,0-9.787,6.989-18.888,6.293
	c-9.079-0.697-46.844-29.371-107.686,21.674c0,0-5.585-16.08,5.595-22.371c0,0-32.865,13.292-44.056,36.36
	c0,0-26.573,0.707-30.068,18.887c0,0-18.179,18.179-11.191,29.36c0,0-10.484-17.473-25.18-25.866c0,0,18.887,22.382,20.292,38.451
	c0,0-21.685-23.068-43.36-22.371c0,0,41.259,20.28,41.966,31.483c0,0-55.248-19.595-66.438-9.809
	c-11.192,9.809-3.506,1.404-3.506,1.404s42.664,16.787,46.866,33.573c0,0-31.472,2.798-37.079,16.08c0,0,4.91-7.697,10.506,1.393
	c0,0-2.101,25.18-7.697,28.674c-5.596,3.495-2.809,0-2.809,0s7.697,7.697,1.405,11.192c0,0-7.686-1.394-11.192,6.292
	c0,0,20.293,4.899,19.585,10.484c0,0-14.675,7.707-14.675,18.19c0,0,9.787,6.282,2.787,16.09c0,0-10.494,11.181-9.09,39.855
	c1.393,28.674,2.101,80.427,16.09,107.697c13.978,27.27,25.866,72.013,32.866,93.002c6.989,20.977,44.742,86.012,47.551,112.585
	c2.798,26.573,4.202,34.966,2.101,55.945c-2.101,20.977,0.697,58.046-8.404,87.406c-9.08,29.37-19.573,66.438-28.664,85.315
	c-9.101,18.887-9.797,27.978-18.887,35.664c-9.079,7.696-41.955,22.392-56.64,31.471C248.598,1021.679,81.472,1116.78,50,1134.264
	h1100c0,0-19.584-21.674-37.753-25.169c0,0-288.127-109.787-330.093-143.349c0,0-36.349-10.506-44.743-9.798v-8.394
	c0,0,53.147,3.495,69.933,4.899c0,0,48.248-4.899,55.934-48.955c0,0-7.686-51.743,11.888-69.237
	C875.166,834.26,890.549,804.89,861.885,793.013z"/>
</svg>
